<?xml version="1.0" encoding="UTF-8" standalone="no"?>
<!DOCTYPE svg PUBLIC "-//W3C//DTD SVG 1.1//EN" "http://www.w3.org/Graphics/SVG/1.1/DTD/svg11.dtd">
<svg width="100%" height="100%" viewBox="0 0 240 240" version="1.1" xmlns="http://www.w3.org/2000/svg"
     xml:space="preserve" xmlns:serif="http://www.serif.com/"
     style="fill-rule:evenodd;clip-rule:evenodd;stroke-linecap:round;stroke-linejoin:round;">
    <g transform="matrix(1,0,0,1,-553,0)">
        <g id="importCharacter1" serif:id="importCharacter">
            <g id="arrow-line-down.svg" transform="matrix(0.53467,0,0,0.53467,557.41,0)">
                <path d="M128,32L128,184" style="fill:none;fill-rule:nonzero;stroke:white;stroke-width:16px;"/>
                <path d="M56,112L128,184L200,112" style="fill:none;fill-rule:nonzero;stroke:white;stroke-width:16px;"/>
                <path d="M40,216L216,216" style="fill:none;fill-rule:nonzero;stroke:white;stroke-width:16px;"/>
            </g>
            <g transform="matrix(0.785404,0,0,0.785404,710.012,145.752)">
                <g transform="matrix(1,0,0,1,-120,-120)">
                    <g>
                        <path d="M144.7,222.7C135.7,222.7 128.4,215.4 128.4,206.4L128.4,154.9L111.7,154.9L111.7,206.4C111.7,215.4 104.4,222.7 95.4,222.7C86.4,222.7 79,215.4 79,206.4L79,111.7L46,111.7C37,111.7 29.7,104.4 29.7,95.4C29.7,86.4 37,79.1 46,79.1L194,79.1C203,79.1 210.3,86.4 210.3,95.4C210.3,104.4 203,111.7 194,111.7L161,111.7L161,206.4C161,215.4 153.7,222.7 144.7,222.7ZM120,74.6C104.2,74.6 91.3,61.7 91.3,45.9C91.3,30.1 104.2,17.2 120,17.2C135.8,17.2 148.7,30.1 148.7,45.9C148.7,61.8 135.8,74.6 120,74.6Z" style="fill:rgb(240,156,32);"/>
                        <path d="M120,21.3C133.6,21.3 144.7,32.3 144.7,46C144.7,59.6 133.6,70.7 120,70.7C106.4,70.7 95.3,59.7 95.3,46C95.3,32.3 106.4,21.3 120,21.3M194,83C200.8,83 206.3,88.5 206.3,95.3C206.3,102.1 200.8,107.6 194,107.6L157,107.6L157,206.3C157,213.1 151.5,218.6 144.7,218.6C137.9,218.6 132.4,213.1 132.4,206.3L132.4,150.8L107.7,150.8L107.7,206.3C107.7,213.1 102.2,218.6 95.4,218.6C88.6,218.6 83.1,213.1 83.1,206.3L83.1,107.6L46,107.6C39.2,107.6 33.7,102.1 33.7,95.3C33.6,88.5 39.1,83 46,83L194,83M120,13.3C102,13.3 87.3,28 87.3,46C87.3,58.6 94.5,69.6 105,75L46,75C34.8,75 25.7,84.1 25.7,95.3C25.7,106.5 34.8,115.6 46,115.6L75,115.6L75,206.3C75,217.5 84.1,226.6 95.3,226.6C106.5,226.6 115.6,217.5 115.6,206.3L115.6,158.8L124.3,158.8L124.3,206.3C124.3,217.5 133.4,226.6 144.6,226.6C155.8,226.6 164.9,217.5 164.9,206.3L164.9,115.6L193.9,115.6C205.1,115.6 214.2,106.5 214.2,95.3C214.2,84.1 205.1,75 193.9,75L134.9,75C145.4,69.6 152.6,58.6 152.6,46C152.7,27.9 138,13.3 120,13.3Z" style="fill:rgb(58,58,58);fill-rule:nonzero;"/>
                    </g>
                </g>
            </g>
        </g>
    </g>
</svg>
