<?xml version="1.0" encoding="UTF-8" standalone="no"?>
<!DOCTYPE svg PUBLIC "-//W3C//DTD SVG 1.1//EN" "http://www.w3.org/Graphics/SVG/1.1/DTD/svg11.dtd">
<svg width="100%" height="100%" viewBox="0 0 241 240" version="1.1" xmlns="http://www.w3.org/2000/svg"
     xml:space="preserve"
     style="fill-rule:evenodd;clip-rule:evenodd;stroke-linecap:round;stroke-linejoin:round;">
    <g transform="matrix(1,0,0,1,-4311,0)">
        <g id="loadSkinCluster" transform="matrix(1,0,0,1,278.414,0)">
            <rect x="4033" y="0" width="240" height="240" style="fill:none;"/>
            <g id="folder-open.svg" transform="matrix(0.582364,0,0,0.582364,4033,0)">
                <rect x="0" y="0" width="256" height="256" style="fill:none;"/>
                <path d="M32,208L32,64C32,59.611 35.611,56 40,56L93.33,56C95.061,56 96.745,56.562 98.13,57.6L125.87,78.4C127.255,79.438 128.939,80 130.67,80L200,80C204.389,80 208,83.611 208,88L208,112" style="fill:none;fill-rule:nonzero;stroke:white;stroke-width:16px;"/>
                <path d="M32,208L62.18,117.47C63.266,114.212 66.335,112 69.77,112L232,112C232,112 232,112 232.001,112C236.389,112 240.001,115.611 240.001,120C240.001,120.86 239.862,121.714 239.59,122.53L211.09,208L32,208Z" style="fill:none;fill-rule:nonzero;stroke:white;stroke-width:16px;"/>
            </g>
            <g transform="matrix(0.856915,0,0,0.856915,4189.36,137.17)">
                <g transform="matrix(1,0,0,1,-120,-120)">
                    <g>
                        <g transform="matrix(0.838047,0,0,0.838047,19.2433,20.4591)">
                            <g>
                                <path d="M167,62.5C154.2,62.5 143.8,52.1 143.8,39.3C143.8,26.5 154.2,16 167,16C179.8,16 190.2,26.4 190.2,39.2C190.2,52 179.8,62.5 167,62.5Z" style="fill:rgb(189,189,189);"/>
                                <path d="M167,20C177.6,20 186.2,28.6 186.2,39.2C186.2,49.8 177.6,58.4 167,58.4C156.4,58.4 147.8,49.8 147.8,39.2C147.8,28.6 156.3,20 167,20M167,12C152,12 139.8,24.2 139.8,39.2C139.8,54.2 152,66.4 167,66.4C182,66.4 194.2,54.2 194.2,39.2C194.2,24.2 182,12 167,12Z" style="fill:rgb(58,58,58);fill-rule:nonzero;"/>
                            </g>
                            <g>
                                <path d="M82.3,128.8C81.3,128.8 80.2,128.4 79.5,127.6C78.2,126.3 78,124.2 79,122.6L128,46.3C128.7,45.3 129.7,44.6 130.9,44.5L131.3,44.5C132.4,44.5 133.4,44.9 134.1,45.7L161.6,73.2C162.5,74.1 162.9,75.3 162.7,76.5C162.6,77.7 161.9,78.8 160.9,79.4L84.3,128.2C83.8,128.6 83,128.8 82.3,128.8Z" style="fill:rgb(189,189,189);"/>
                                <path d="M131.4,48.5L158.9,76L82.3,124.8L131.4,48.5M131.4,40.5L130.5,40.5C128.1,40.8 125.9,42.1 124.6,44.1L75.5,120.4C73.5,123.6 73.9,127.7 76.6,130.4C78.1,132 80.2,132.8 82.3,132.8C83.8,132.8 85.3,132.4 86.6,131.5L163.2,82.7C165.2,81.4 166.6,79.2 166.9,76.8C167.2,74.4 166.3,72 164.6,70.3L137,42.8C135.5,41.3 133.5,40.5 131.4,40.5Z" style="fill:rgb(58,58,58);fill-rule:nonzero;"/>
                            </g>
                            <g>
                                <path d="M73,156.9C60.2,156.9 49.8,146.5 49.8,133.7C49.8,120.9 60.2,110.5 73,110.5C85.8,110.5 96.2,120.9 96.2,133.7C96.3,146.5 85.8,156.9 73,156.9Z" style="fill:rgb(189,189,189);"/>
                                <path d="M73,114.5C83.6,114.5 92.2,123.1 92.2,133.7C92.2,144.3 83.6,152.9 73,152.9C62.4,152.9 53.8,144.3 53.8,133.7C53.8,123.1 62.4,114.5 73,114.5M73,106.5C58,106.5 45.8,118.7 45.8,133.7C45.8,148.7 58,160.9 73,160.9C88,160.9 100.2,148.7 100.2,133.7C100.2,118.7 88.1,106.5 73,106.5Z" style="fill:rgb(58,58,58);fill-rule:nonzero;"/>
                            </g>
                            <g>
                                <path d="M158.6,222.4C157.9,222.4 157.1,222.2 156.4,221.8L80.1,172.7C79.1,172 78.4,171 78.3,169.8C78.2,168.6 78.6,167.4 79.4,166.5L107,139C107.8,138.2 108.8,137.8 109.8,137.8L110.2,137.8C111.4,137.9 112.5,138.6 113.1,139.6L161.9,216.2C162.9,217.8 162.7,219.9 161.3,221.2C160.6,222 159.6,222.4 158.6,222.4Z" style="fill:rgb(189,189,189);"/>
                                <path d="M109.8,141.8L158.6,218.4L82.3,169.3L109.8,141.8M109.8,133.8C107.7,133.8 105.7,134.6 104.1,136.1L76.6,163.6C74.9,165.3 74,167.7 74.3,170.1C74.6,172.5 75.9,174.7 77.9,176L154.2,225.1C155.5,226 157,226.4 158.5,226.4C160.6,226.4 162.6,225.6 164.1,224.1C166.8,221.4 167.2,217.3 165.2,214.1L116.4,137.5C115.1,135.5 112.9,134.1 110.5,133.8L109.8,133.8Z" style="fill:rgb(58,58,58);fill-rule:nonzero;"/>
                            </g>
                        </g>
                        <g transform="matrix(0.838047,0,0,0.838047,19.2433,20.4591)">
                            <path d="M45.474,164.928C35.089,157.083 28.603,145.13 27.687,132.147C26.771,119.164 31.513,106.419 40.693,97.193C69.707,68.032 109.496,28.043 134.626,2.786C148.696,-11.355 170.613,-14.04 187.681,-3.713C187.682,-3.713 187.682,-3.713 187.682,-3.713C202.652,5.345 212.094,21.294 212.834,38.775C213.574,56.256 205.514,72.947 191.363,83.237C172.048,97.282 152.879,111.221 141.254,119.674C138.297,121.824 136.322,125.067 135.766,128.68C135.21,132.294 136.121,135.98 138.296,138.919C151.598,156.898 177.604,192.046 190.088,208.918C194.434,214.792 195.345,222.529 192.483,229.252C192.483,229.252 192.483,229.253 192.482,229.253C188.862,237.757 181.526,244.119 172.595,246.501C163.665,248.883 154.135,247.019 146.76,241.447C118.576,220.155 76.579,188.428 45.474,164.928Z" style="fill:none;stroke:rgb(58,58,58);stroke-width:26.25px;stroke-miterlimit:1.5;"/>
                        </g>
                        <g transform="matrix(0.838047,0,0,0.838047,19.2433,20.4591)">
                            <path d="M45.474,164.928C35.089,157.083 28.603,145.13 27.687,132.147C26.771,119.164 31.513,106.419 40.693,97.193C69.707,68.032 109.496,28.043 134.626,2.786C148.696,-11.355 170.613,-14.04 187.681,-3.713C187.682,-3.713 187.682,-3.713 187.682,-3.713C202.652,5.345 212.094,21.294 212.834,38.775C213.574,56.256 205.514,72.947 191.363,83.237C172.048,97.282 152.879,111.221 141.254,119.674C138.297,121.824 136.322,125.067 135.766,128.68C135.21,132.294 136.121,135.98 138.296,138.919C151.598,156.898 177.604,192.046 190.088,208.918C194.434,214.792 195.345,222.529 192.483,229.252C192.483,229.252 192.483,229.253 192.482,229.253C188.862,237.757 181.526,244.119 172.595,246.501C163.665,248.883 154.135,247.019 146.76,241.447C118.576,220.155 76.579,188.428 45.474,164.928Z" style="fill:none;stroke:rgb(174,156,219);stroke-width:11.93px;stroke-miterlimit:1.5;"/>
                        </g>
                    </g>
                </g>
            </g>
        </g>
    </g>
</svg>
