<?xml version="1.0" encoding="UTF-8" standalone="no"?>
<!DOCTYPE svg PUBLIC "-//W3C//DTD SVG 1.1//EN" "http://www.w3.org/Graphics/SVG/1.1/DTD/svg11.dtd">
<svg width="100%" height="100%" viewBox="0 0 240 240" version="1.1" xmlns="http://www.w3.org/2000/svg"
     xml:space="preserve" xmlns:serif="http://www.serif.com/"
     style="fill-rule:evenodd;clip-rule:evenodd;stroke-linecap:round;stroke-linejoin:round;">
    <g transform="matrix(1,0,0,1,-2873,0)">
        <rect id="loadControls" x="2873" y="0" width="240" height="240" style="fill:none;"/>
        <g id="loadControls1" serif:id="loadControls">
            <g id="folder-open.svg" transform="matrix(0.582364,0,0,0.582364,2873,0.765572)">
                <rect x="0" y="0" width="256" height="256" style="fill:none;"/>
                <path d="M32,208L32,64C32,59.611 35.611,56 40,56L93.33,56C95.061,56 96.745,56.562 98.13,57.6L125.87,78.4C127.255,79.438 128.939,80 130.67,80L200,80C204.389,80 208,83.611 208,88L208,112" style="fill:none;fill-rule:nonzero;stroke:white;stroke-width:16px;"/>
                <path d="M32,208L62.18,117.47C63.266,114.212 66.335,112 69.77,112L232,112C232,112 232,112 232.001,112C236.389,112 240.001,115.611 240.001,120C240.001,120.86 239.862,121.714 239.59,122.53L211.09,208L32,208Z" style="fill:none;fill-rule:nonzero;stroke:white;stroke-width:16px;"/>
            </g>
            <g transform="matrix(1.25938,0,0,1.25938,-814.648,-104.669)">
                <path d="M3053,144.382C3086.12,144.382 3113,171.267 3113,204.382C3113,237.497 3086.12,264.382 3053,264.382C3019.89,264.382 2993,237.497 2993,204.382C2993,171.267 3019.89,144.382 3053,144.382ZM3053,159.382C3077.84,159.382 3098,179.546 3098,204.382C3098,229.218 3077.84,249.382 3053,249.382C3028.16,249.382 3008,229.218 3008,204.382C3008,179.546 3028.16,159.382 3053,159.382Z" style="fill:rgb(87,162,200);stroke:rgb(58,58,58);stroke-width:7.15px;stroke-linejoin:miter;stroke-miterlimit:1;"/>
            </g>
        </g>
    </g>
</svg>
