<?xml version="1.0" encoding="UTF-8" standalone="no"?>
<!DOCTYPE svg PUBLIC "-//W3C//DTD SVG 1.1//EN" "http://www.w3.org/Graphics/SVG/1.1/DTD/svg11.dtd">
<svg width="100%" height="100%" viewBox="0 0 241 240" version="1.1" xmlns="http://www.w3.org/2000/svg"
     xml:space="preserve"
     style="fill-rule:evenodd;clip-rule:evenodd;stroke-linecap:round;stroke-linejoin:round;">
    <g transform="matrix(1,0,0,1,-6040,0)">
        <g id="loadDeformers" transform="matrix(1,0,0,1,-279.687,0)">
            <rect x="6320" y="0" width="240" height="240" style="fill:none;"/>
            <g clip-path="url(#_clip1)">
                <g id="folder-open.svg" transform="matrix(0.582364,0,0,0.582364,6320,-0.127844)">
                    <rect x="0" y="0" width="256" height="256" style="fill:none;"/>
                    <path d="M32,208L32,64C32,59.611 35.611,56 40,56L93.33,56C95.061,56 96.745,56.562 98.13,57.6L125.87,78.4C127.255,79.438 128.939,80 130.67,80L200,80C204.389,80 208,83.611 208,88L208,112" style="fill:none;fill-rule:nonzero;stroke:white;stroke-width:16px;"/>
                    <path d="M32,208L62.18,117.47C63.266,114.212 66.335,112 69.77,112L232,112C232,112 232,112 232.001,112C236.389,112 240.001,115.611 240.001,120C240.001,120.86 239.862,121.714 239.59,122.53L211.09,208L32,208Z" style="fill:none;fill-rule:nonzero;stroke:white;stroke-width:16px;"/>
                </g>
                <g transform="matrix(0.679744,0,0,0.679744,6470.86,151.536)">
                    <g transform="matrix(1,0,0,1,-120,-120)">
                        <g clip-path="url(#_clip2)">
                            <g>
                                <path d="M216.2,116L216.2,124L23.8,124L23.8,116L216.2,116M224.2,108L15.8,108L15.8,132L224.2,132L224.2,108Z" style="fill:rgb(58,58,58);fill-rule:nonzero;"/>
                                <path d="M124,23.8L124,216.2L116,216.2L116,23.8L124,23.8M132,15.8L108,15.8L108,224.2L132,224.2L132,15.8Z" style="fill:rgb(58,58,58);fill-rule:nonzero;"/>
                                <path d="M120,16.3C62.7,16.3 16.3,62.7 16.3,120C16.3,177.3 62.7,223.7 120,223.7C177.3,223.7 223.7,177.3 223.7,120C223.7,62.7 177.3,16.3 120,16.3ZM120,207.4C71.7,207.4 32.6,168.3 32.6,120C32.6,71.7 71.7,32.6 120,32.6C168.3,32.6 207.4,71.7 207.4,120C207.4,168.3 168.3,207.4 120,207.4Z" style="fill:rgb(189,189,189);fill-rule:nonzero;stroke:rgb(58,58,58);stroke-width:8px;stroke-linejoin:miter;stroke-miterlimit:10;"/>
                                <rect x="23.8" y="116" width="192.4" height="8" style="fill:rgb(189,189,189);"/>
                                <rect x="116" y="23.8" width="8" height="192.4" style="fill:rgb(189,189,189);"/>
                                <rect x="194.3" y="100.3" width="39.4" height="39.4" style="fill:rgb(174,156,219);"/>
                                <path d="M229.7,104.3L229.7,135.7L198.3,135.7L198.3,104.3L229.7,104.3M237.7,96.3L190.3,96.3L190.3,143.7L237.7,143.7L237.7,96.3Z" style="fill:rgb(58,58,58);fill-rule:nonzero;"/>
                                <rect x="100.3" y="194.3" width="39.4" height="39.4" style="fill:rgb(174,156,219);"/>
                                <path d="M135.7,198.3L135.7,229.7L104.3,229.7L104.3,198.3L135.7,198.3M143.7,190.3L96.3,190.3L96.3,237.7L143.7,237.7L143.7,190.3Z" style="fill:rgb(58,58,58);fill-rule:nonzero;"/>
                                <rect x="166.5" y="168.7" width="39.4" height="39.4" style="fill:rgb(174,156,219);"/>
                                <path d="M201.9,172.7L201.9,204.1L170.5,204.1L170.5,172.7L201.9,172.7M209.9,164.7L162.5,164.7L162.5,212.1L209.9,212.1L209.9,164.7Z" style="fill:rgb(58,58,58);fill-rule:nonzero;"/>
                                <rect x="166.5" y="34.1" width="39.4" height="39.4" style="fill:rgb(174,156,219);"/>
                                <path d="M201.9,38.1L201.9,69.5L170.5,69.5L170.5,38.1L201.9,38.1M209.9,30.1L162.5,30.1L162.5,77.5L209.9,77.5L209.9,30.1Z" style="fill:rgb(58,58,58);fill-rule:nonzero;"/>
                                <rect x="100.3" y="100.3" width="39.4" height="39.4" style="fill:rgb(174,156,219);"/>
                                <path d="M135.7,104.3L135.7,135.7L104.3,135.7L104.3,104.3L135.7,104.3M143.7,96.3L96.3,96.3L96.3,143.7L143.7,143.7L143.7,96.3Z" style="fill:rgb(58,58,58);fill-rule:nonzero;"/>
                                <rect x="100.3" y="6.6" width="39.4" height="39.4" style="fill:rgb(174,156,219);"/>
                                <path d="M135.7,10.6L135.7,42L104.3,42L104.3,10.6L135.7,10.6M143.7,2.6L96.3,2.6L96.3,50L143.7,50L143.7,2.6Z" style="fill:rgb(58,58,58);fill-rule:nonzero;"/>
                            </g>
                        </g>
                    </g>
                </g>
            </g>
        </g>
    </g>
</svg>
