<?xml version="1.0" encoding="UTF-8" standalone="no"?>
<!DOCTYPE svg PUBLIC "-//W3C//DTD SVG 1.1//EN" "http://www.w3.org/Graphics/SVG/1.1/DTD/svg11.dtd">
<svg width="100%" height="100%" viewBox="0 0 241 240" version="1.1" xmlns="http://www.w3.org/2000/svg"
     xml:space="preserve"
     style="fill-rule:evenodd;clip-rule:evenodd;stroke-linecap:round;stroke-linejoin:round;">
    <g transform="matrix(1,0,0,1,-5198,0)">
        <g id="loadDeformLayers" transform="matrix(1,0,0,1,-251.741,0)">
            <g clip-path="url(#_clip1)">
                <g id="folder-open.svg" transform="matrix(0.582364,0,0,0.582364,5450.21,0.0258763)">
                    <path d="M32,208L32,64C32,59.611 35.611,56 40,56L93.33,56C95.061,56 96.745,56.562 98.13,57.6L125.87,78.4C127.255,79.438 128.939,80 130.67,80L200,80C204.389,80 208,83.611 208,88L208,112" style="fill:none;fill-rule:nonzero;stroke:white;stroke-width:16px;"/>
                    <path d="M32,208L62.18,117.47C63.266,114.212 66.335,112 69.77,112L232,112C232,112 232,112 232.001,112C236.389,112 240.001,115.611 240.001,120C240.001,120.86 239.862,121.714 239.59,122.53L211.09,208L32,208Z" style="fill:none;fill-rule:nonzero;stroke:white;stroke-width:16px;"/>
                </g>
                <g transform="matrix(0.782662,0,0,0.782662,5596.4,146.081)">
                    <g transform="matrix(1,0,0,1,-120,-120)">
                        <g>
                            <path d="M20.2,154.5L120.1,85.9L220,154.5L120.1,223.2L20.2,154.5Z" style="fill:rgb(174,156,219);"/>
                            <path d="M120.1,90.7L213,154.5L120.1,218.3L27.2,154.5L120.1,90.7M120.1,81L13.1,154.5L120.1,228.1L227.1,154.5L120.1,81Z" style="fill:rgb(58,58,58);fill-rule:nonzero;"/>
                            <path d="M20.2,118.5L120.1,49.9L220,118.5L120.1,187.2L20.2,118.5Z" style="fill:rgb(189,189,189);"/>
                            <path d="M120.1,54.7L213,118.5L120.1,182.3L27.2,118.5L120.1,54.7M120.1,45L13.1,118.5L120.1,192.1L227.1,118.5L120.1,45Z" style="fill:rgb(58,58,58);fill-rule:nonzero;"/>
                        </g>
                        <g id="XMLID_11_">
                            <path d="M20.2,85.5L120.1,16.9L220,85.5L120.1,154.2L20.2,85.5Z" style="fill:rgb(174,156,219);"/>
                            <path d="M120.1,21.7L213,85.5L120.1,149.3L27.2,85.5L120.1,21.7M120.1,12L13.1,85.5L120.1,159.1L227.1,85.5L120.1,12Z" style="fill:rgb(58,58,58);fill-rule:nonzero;"/>
                        </g>
                    </g>
                </g>
            </g>
        </g>
    </g>
</svg>
