<?xml version="1.0" encoding="UTF-8" standalone="no"?>
<!DOCTYPE svg PUBLIC "-//W3C//DTD SVG 1.1//EN" "http://www.w3.org/Graphics/SVG/1.1/DTD/svg11.dtd">
<svg width="100%" height="100%" viewBox="0 0 241 240" version="1.1" xmlns="http://www.w3.org/2000/svg"
     xml:space="preserve"
     style="fill-rule:evenodd;clip-rule:evenodd;stroke-linecap:round;stroke-miterlimit:1;">
    <g transform="matrix(1,0,0,1,-3439,0)">
        <g id="mirrorControls" transform="matrix(1,0,0,1,-1445.23,0)">
            <rect x="4885" y="0" width="240" height="240" style="fill:none;"/>
            <clipPath id="_clip1">
                <rect x="4885" y="0" width="240" height="240"/>
            </clipPath>
            <g clip-path="url(#_clip1)">
                <g transform="matrix(1,0,0,1,-0.19617,120.855)">
                    <path d="M5010.55,29.652C5010.55,28.881 5009.93,28.256 5009.15,28.256C5007.1,28.256 5003.29,28.256 5001.24,28.256C5000.47,28.256 4999.84,28.881 4999.84,29.652C4999.84,34.098 4999.84,47.9 4999.84,52.346C4999.84,53.117 5000.47,53.742 5001.24,53.742C5003.29,53.742 5007.1,53.742 5009.15,53.742C5009.93,53.742 5010.55,53.117 5010.55,52.346C5010.55,47.9 5010.55,34.098 5010.55,29.652Z" style="fill:white;"/>
                </g>
                <g transform="matrix(1,0,0,1,-0.19617,160.42)">
                    <path d="M5010.55,29.652C5010.55,28.881 5009.93,28.256 5009.15,28.256C5007.1,28.256 5003.29,28.256 5001.24,28.256C5000.47,28.256 4999.84,28.881 4999.84,29.652C4999.84,34.098 4999.84,47.9 4999.84,52.346C4999.84,53.117 5000.47,53.742 5001.24,53.742C5003.29,53.742 5007.1,53.742 5009.15,53.742C5009.93,53.742 5010.55,53.117 5010.55,52.346C5010.55,47.9 5010.55,34.098 5010.55,29.652Z" style="fill:white;"/>
                </g>
                <path d="M5010.55,29.652C5010.55,28.881 5009.93,28.256 5009.15,28.256C5007.1,28.256 5003.29,28.256 5001.24,28.256C5000.47,28.256 4999.84,28.881 4999.84,29.652C4999.84,34.098 4999.84,47.9 4999.84,52.346C4999.84,53.117 5000.47,53.742 5001.24,53.742C5003.29,53.742 5007.1,53.742 5009.15,53.742C5009.93,53.742 5010.55,53.117 5010.55,52.346C5010.55,47.9 5010.55,34.098 5010.55,29.652Z" style="fill:white;"/>
                <g transform="matrix(1,0,0,1,-0.19617,39.4931)">
                    <path d="M5010.55,29.652C5010.55,28.881 5009.93,28.256 5009.15,28.256C5007.1,28.256 5003.29,28.256 5001.24,28.256C5000.47,28.256 4999.84,28.881 4999.84,29.652C4999.84,34.098 4999.84,47.9 4999.84,52.346C4999.84,53.117 5000.47,53.742 5001.24,53.742C5003.29,53.742 5007.1,53.742 5009.15,53.742C5009.93,53.742 5010.55,53.117 5010.55,52.346C5010.55,47.9 5010.55,34.098 5010.55,29.652Z" style="fill:white;"/>
                </g>
                <g transform="matrix(1,0,0,1,-0.19617,79.0009)">
                    <path d="M5010.55,29.652C5010.55,28.881 5009.93,28.256 5009.15,28.256C5007.1,28.256 5003.29,28.256 5001.24,28.256C5000.47,28.256 4999.84,28.881 4999.84,29.652C4999.84,34.098 4999.84,47.9 4999.84,52.346C4999.84,53.117 5000.47,53.742 5001.24,53.742C5003.29,53.742 5007.1,53.742 5009.15,53.742C5009.93,53.742 5010.55,53.117 5010.55,52.346C5010.55,47.9 5010.55,34.098 5010.55,29.652Z" style="fill:white;"/>
                </g>
                <g transform="matrix(1.25938,0,0,1.25938,1263.73,-140.833)">
                    <path d="M3053,144.382C3086.12,144.382 3113,171.267 3113,204.382C3113,237.497 3086.12,264.382 3053,264.382C3019.89,264.382 2993,237.497 2993,204.382C2993,171.267 3019.89,144.382 3053,144.382ZM3053,159.382C3077.84,159.382 3098,179.546 3098,204.382C3098,229.218 3077.84,249.382 3053,249.382C3028.16,249.382 3008,229.218 3008,204.382C3008,179.546 3028.16,159.382 3053,159.382Z" style="fill:rgb(87,162,200);stroke:rgb(58,58,58);stroke-width:7.15px;"/>
                </g>
                <g transform="matrix(1.25938,0,0,1.25938,1053.61,-137.395)">
                    <path d="M3053,144.382C3086.12,144.382 3113,171.267 3113,204.382C3113,237.497 3086.12,264.382 3053,264.382C3019.89,264.382 2993,237.497 2993,204.382C2993,171.267 3019.89,144.382 3053,144.382ZM3053,159.382C3077.84,159.382 3098,179.546 3098,204.382C3098,229.218 3077.84,249.382 3053,249.382C3028.16,249.382 3008,229.218 3008,204.382C3008,179.546 3028.16,159.382 3053,159.382Z" style="fill:rgb(87,162,200);stroke:rgb(58,58,58);stroke-width:7.15px;"/>
                </g>
            </g>
        </g>
    </g>
</svg>
