<?xml version="1.0" encoding="UTF-8" standalone="no"?>
<!DOCTYPE svg PUBLIC "-//W3C//DTD SVG 1.1//EN" "http://www.w3.org/Graphics/SVG/1.1/DTD/svg11.dtd">
<svg width="100%" height="100%" viewBox="0 0 240 240" version="1.1" xmlns="http://www.w3.org/2000/svg"
     xml:space="preserve" xmlns:serif="http://www.serif.com/"
     style="fill-rule:evenodd;clip-rule:evenodd;stroke-linecap:round;stroke-linejoin:round;">
    <g transform="matrix(1,0,0,1,-3163,0)">
        <rect id="saveControls" x="3163" y="0" width="240" height="240" style="fill:none;"/>
        <g id="saveControls1" serif:id="saveControls">
            <g id="floppy-disk.svg" transform="matrix(0.585355,0,0,0.585355,3163,0)">
                <rect x="0" y="0" width="256" height="256" style="fill:none;"/>
                <path d="M216,91.31L216,208C216,212.389 212.389,216 208,216L48,216C43.611,216 40,212.389 40,208L40,48C40,43.611 43.611,40 48,40L164.69,40C166.808,40.001 168.841,40.843 170.34,42.34L213.66,85.66C215.157,87.159 215.999,89.192 216,91.31Z" style="fill:none;fill-rule:nonzero;stroke:white;stroke-width:16px;"/>
                <path d="M80,216L80,152C80,147.611 83.611,144 88,144L168,144C172.389,144 176,147.611 176,152L176,216" style="fill:none;fill-rule:nonzero;stroke:white;stroke-width:16px;"/>
                <path d="M152,72L96,72" style="fill:none;fill-rule:nonzero;stroke:white;stroke-width:16px;"/>
            </g>
            <g transform="matrix(1.25938,0,0,1.25938,-524.648,-104.669)">
                <path d="M3053,144.382C3086.12,144.382 3113,171.267 3113,204.382C3113,237.497 3086.12,264.382 3053,264.382C3019.89,264.382 2993,237.497 2993,204.382C2993,171.267 3019.89,144.382 3053,144.382ZM3053,159.382C3077.84,159.382 3098,179.546 3098,204.382C3098,229.218 3077.84,249.382 3053,249.382C3028.16,249.382 3008,229.218 3008,204.382C3008,179.546 3028.16,159.382 3053,159.382Z" style="fill:rgb(87,162,200);stroke:rgb(58,58,58);stroke-width:7.15px;stroke-linejoin:miter;stroke-miterlimit:1;"/>
            </g>
        </g>
    </g>
</svg>
