<?xml version="1.0" encoding="UTF-8" standalone="no"?>
<!DOCTYPE svg PUBLIC "-//W3C//DTD SVG 1.1//EN" "http://www.w3.org/Graphics/SVG/1.1/DTD/svg11.dtd">
<svg width="100%" height="100%" viewBox="0 0 241 240" version="1.1" xmlns="http://www.w3.org/2000/svg"
     xml:space="preserve"
     style="fill-rule:evenodd;clip-rule:evenodd;stroke-linecap:round;stroke-linejoin:round;">
    <g transform="matrix(1,0,0,1,-4923,0)">
        <g id="saveDeformLayers" transform="matrix(1,0,0,1,-251.532,0)">
            <g clip-path="url(#_clip1)">
                <g id="floppy-disk.svg" transform="matrix(0.585355,0,0,0.585355,5171.23,0)">
                    <path d="M216,91.31L216,208C216,212.389 212.389,216 208,216L48,216C43.611,216 40,212.389 40,208L40,48C40,43.611 43.611,40 48,40L164.69,40C166.808,40.001 168.841,40.843 170.34,42.34L213.66,85.66C215.157,87.159 215.999,89.192 216,91.31Z" style="fill:none;fill-rule:nonzero;stroke:white;stroke-width:16px;"/>
                    <path d="M80,216L80,152C80,147.611 83.611,144 88,144L168,144C172.389,144 176,147.611 176,152L176,216" style="fill:none;fill-rule:nonzero;stroke:white;stroke-width:16px;"/>
                    <path d="M152,72L96,72" style="fill:none;fill-rule:nonzero;stroke:white;stroke-width:16px;"/>
                </g>
                <g transform="matrix(0.782662,0,0,0.782662,5321.08,146.081)">
                    <g transform="matrix(1,0,0,1,-120,-120)">
                        <rect x="0" y="0" width="240" height="240" style="fill:none;"/>
                        <g>
                            <path d="M20.2,154.5L120.1,85.9L220,154.5L120.1,223.2L20.2,154.5Z" style="fill:rgb(174,156,219);"/>
                            <path d="M120.1,90.7L213,154.5L120.1,218.3L27.2,154.5L120.1,90.7M120.1,81L13.1,154.5L120.1,228.1L227.1,154.5L120.1,81Z" style="fill:rgb(58,58,58);fill-rule:nonzero;"/>
                            <path d="M20.2,118.5L120.1,49.9L220,118.5L120.1,187.2L20.2,118.5Z" style="fill:rgb(189,189,189);"/>
                            <path d="M120.1,54.7L213,118.5L120.1,182.3L27.2,118.5L120.1,54.7M120.1,45L13.1,118.5L120.1,192.1L227.1,118.5L120.1,45Z" style="fill:rgb(58,58,58);fill-rule:nonzero;"/>
                            <path d="M20.2,85.5L120.1,16.9L220,85.5L120.1,154.2L20.2,85.5Z" style="fill:rgb(174,156,219);"/>
                            <path d="M120.1,21.7L213,85.5L120.1,149.3L27.2,85.5L120.1,21.7M120.1,12L13.1,85.5L120.1,159.1L227.1,85.5L120.1,12Z" style="fill:rgb(58,58,58);fill-rule:nonzero;"/>
                        </g>
                    </g>
                </g>
            </g>
        </g>
    </g>
</svg>
