<?xml version="1.0" encoding="UTF-8" standalone="no"?>
<!DOCTYPE svg PUBLIC "-//W3C//DTD SVG 1.1//EN" "http://www.w3.org/Graphics/SVG/1.1/DTD/svg11.dtd">
<svg width="100%" height="100%" viewBox="0 0 240 240" version="1.1" xmlns="http://www.w3.org/2000/svg"
     xml:space="preserve" xmlns:serif="http://www.serif.com/"
     style="fill-rule:evenodd;clip-rule:evenodd;stroke-linecap:round;stroke-linejoin:round;">
    <g transform="matrix(1,0,0,1,-2293,0)">
        <rect id="saveGuides" x="2293" y="0" width="240" height="240" style="fill:none;"/>
        <g id="saveGuides1" serif:id="saveGuides">
            <g id="floppy-disk.svg" transform="matrix(0.585355,0,0,0.585355,2293,0)">
                <rect x="0" y="0" width="256" height="256" style="fill:none;"/>
                <path d="M216,91.31L216,208C216,212.389 212.389,216 208,216L48,216C43.611,216 40,212.389 40,208L40,48C40,43.611 43.611,40 48,40L164.69,40C166.808,40.001 168.841,40.843 170.34,42.34L213.66,85.66C215.157,87.159 215.999,89.192 216,91.31Z" style="fill:none;fill-rule:nonzero;stroke:white;stroke-width:16px;"/>
                <path d="M80,216L80,152C80,147.611 83.611,144 88,144L168,144C172.389,144 176,147.611 176,152L176,216" style="fill:none;fill-rule:nonzero;stroke:white;stroke-width:16px;"/>
                <path d="M152,72L96,72" style="fill:none;fill-rule:nonzero;stroke:white;stroke-width:16px;"/>
            </g>
            <g transform="matrix(4.50746,0,0,4.50746,2442.85,149.851)">
                <g transform="matrix(1,0,0,1,-20,-20)">
                    <g>
                        <path d="M19.5,35.6C18.7,35.6 18,34.9 18,34.1L18,22.2L10.6,26.6C10.4,26.7 10.2,26.8 10,26.8C9.5,26.8 9,26.5 8.8,26.1C8.4,25.4 8.7,24.5 9.4,24.1L17.1,19.7L9.4,15.3C9,15 8.7,14.7 8.6,14.3C8.5,13.9 8.6,13.5 8.8,13.2C9.1,12.7 9.6,12.5 10.1,12.5C10.4,12.5 10.4,12.6 10.6,12.7L18,17L18,5.2C18,4.4 18.7,3.7 19.5,3.7C20.3,3.7 21,4.3 21,5.2L21,17L28.9,12.6C29.1,12.5 29.5,12.4 29.8,12.4C30.3,12.4 30.9,12.7 31.2,13.1C31.4,13.4 31.5,13.9 31.4,14.2C31.3,14.6 31.1,14.9 30.7,15.1L23,19.6L30.7,24C31.4,24.4 31.7,25.3 31.3,26C31,26.5 30.5,26.7 30,26.7C29.7,26.7 29.2,26.6 29,26.5L21,22.2L21,34.1C21,34.9 20.3,35.6 19.5,35.6Z" style="fill:rgb(0,167,163);"/>
                        <path d="M11.382,11.304C11.389,11.308 11.397,11.312 11.404,11.317L16.4,14.22L16.4,5.2C16.4,3.547 17.847,2.1 19.5,2.1C21.153,2.1 22.6,3.34 22.6,5.2L22.6,14.277L28.121,11.202C28.142,11.191 28.163,11.18 28.184,11.169C28.544,10.989 29.261,10.8 29.8,10.8C30.757,10.8 31.906,11.374 32.48,12.14C32.498,12.164 32.515,12.188 32.531,12.212C32.957,12.852 33.125,13.903 32.952,14.588C32.739,15.44 32.302,16.072 31.468,16.504C31.468,16.504 26.198,19.584 26.198,19.584L31.494,22.611C32.952,23.444 33.523,25.335 32.689,26.794C32.684,26.804 32.678,26.813 32.672,26.823C32.052,27.857 31.034,28.3 30,28.3C29.484,28.3 28.629,28.103 28.284,27.931C28.27,27.924 28.256,27.917 28.242,27.909L22.6,24.876L22.6,34.1C22.6,35.753 21.153,37.2 19.5,37.2C17.847,37.2 16.4,35.753 16.4,34.1L16.4,25.013L11.418,27.975C11.384,27.995 11.35,28.014 11.316,28.031C10.883,28.247 10.432,28.4 10,28.4C8.91,28.4 7.842,27.72 7.392,26.86C6.586,25.406 7.159,23.538 8.606,22.711L13.875,19.7L8.606,16.689C8.549,16.656 8.493,16.62 8.44,16.58C7.706,16.03 7.231,15.422 7.048,14.688C6.835,13.837 7.031,12.984 7.443,12.352C8.065,11.336 9.074,10.9 10.1,10.9C10.782,10.9 11.273,11.225 11.382,11.304ZM19.5,35.6C20.3,35.6 21,34.9 21,34.1L21,22.2L29,26.5C29.2,26.6 29.7,26.7 30,26.7C30.5,26.7 31,26.5 31.3,26C31.7,25.3 31.4,24.4 30.7,24L23,19.6L30.7,15.1C31.1,14.9 31.3,14.6 31.4,14.2C31.5,13.9 31.4,13.4 31.2,13.1C30.9,12.7 30.3,12.4 29.8,12.4C29.5,12.4 29.1,12.5 28.9,12.6L21,17L21,5.2C21,4.3 20.3,3.7 19.5,3.7C18.7,3.7 18,4.4 18,5.2L18,17L10.6,12.7C10.4,12.6 10.4,12.5 10.1,12.5C9.6,12.5 9.1,12.7 8.8,13.2C8.6,13.5 8.5,13.9 8.6,14.3C8.7,14.7 9,15 9.4,15.3L17.1,19.7L9.4,24.1C8.7,24.5 8.4,25.4 8.8,26.1C9,26.5 9.5,26.8 10,26.8C10.2,26.8 10.4,26.7 10.6,26.6L18,22.2L18,34.1C18,34.9 18.7,35.6 19.5,35.6Z" style="fill:rgb(58,58,58);"/>
                    </g>
                </g>
            </g>
        </g>
    </g>
</svg>
