<?xml version="1.0" encoding="UTF-8" standalone="no"?>
<!DOCTYPE svg PUBLIC "-//W3C//DTD SVG 1.1//EN" "http://www.w3.org/Graphics/SVG/1.1/DTD/svg11.dtd">
<svg width="100%" height="100%" viewBox="0 0 241 240" version="1.1" xmlns="http://www.w3.org/2000/svg"
     xml:space="preserve"
     style="fill-rule:evenodd;clip-rule:evenodd;stroke-linecap:round;stroke-linejoin:round;">
    <g transform="matrix(1,0,0,1,-4021,0)">
        <g id="savePsd" transform="matrix(1,0,0,1,278.414,0)">
            <rect x="3743" y="0" width="240" height="240" style="fill:none;"/>
            <g clip-path="url(#_clip1)">
                <g id="floppy-disk.svg" transform="matrix(0.585355,0,0,0.585355,3743,-1.42109e-14)">
                    <rect x="0" y="0" width="256" height="256" style="fill:none;"/>
                    <path d="M216,91.31L216,208C216,212.389 212.389,216 208,216L48,216C43.611,216 40,212.389 40,208L40,48C40,43.611 43.611,40 48,40L164.69,40C166.808,40.001 168.841,40.843 170.34,42.34L213.66,85.66C215.157,87.159 215.999,89.192 216,91.31Z" style="fill:none;fill-rule:nonzero;stroke:white;stroke-width:16px;"/>
                    <path d="M80,216L80,152C80,147.611 83.611,144 88,144L168,144C172.389,144 176,147.611 176,152L176,216" style="fill:none;fill-rule:nonzero;stroke:white;stroke-width:16px;"/>
                    <path d="M152,72L96,72" style="fill:none;fill-rule:nonzero;stroke:white;stroke-width:16px;"/>
                </g>
                <g transform="matrix(0.689938,0,0,0.689938,3900.21,157.207)">
                    <g transform="matrix(1,0,0,1,-120,-120)">
                        <g clip-path="url(#_clip2)">
                            <circle id="XMLID_32_" cx="120" cy="120" r="103.7" style="fill:rgb(72,170,181);stroke:rgb(58,58,58);stroke-width:8px;stroke-linecap:butt;stroke-linejoin:miter;stroke-miterlimit:10;"/>
                            <path d="M193.6,174C188.6,177 183.1,179.7 177.2,182C179.4,166.9 179.5,151 177.3,135C180.8,133.5 184.1,131.8 187.3,130C204.3,120.2 215.2,107 219.6,91.2C218.1,85.8 216.1,80.7 213.8,75.7C213.4,100.4 197.1,115.1 183.4,123C181.1,124.4 178.6,125.6 176.1,126.8C175.5,123.4 174.8,120.1 173.9,116.7C170.5,102.8 165,89.5 158,77.3C174.5,69.2 185.2,56.1 185.2,41.2C185.2,40.5 185.2,39.9 185.1,39.2C182,36.7 178.8,34.4 175.4,32.3C176.5,35.2 177.1,38.1 177.1,41.2C177.1,53.2 167.9,63.9 153.7,70.5C146,58.8 136.9,48.4 126.7,39.8C137.4,32.3 148.5,27.3 158.7,24.9L158.4,23.6C154.8,22.2 151.2,20.9 147.4,19.9C137.9,23.3 128.7,28.3 120,34.6C111.3,28.2 102,23.2 92.4,19.8C88.8,20.8 85.2,22 81.7,23.3L81.3,24.8C91.5,27.2 102.5,32.2 113.3,39.7C103.2,48.3 94,58.7 86.3,70.4C72.4,64 63.2,53.4 63.2,41.3C63.2,38.1 63.9,34.9 65.1,32C61.7,34.1 58.4,36.4 55.3,38.9C55.2,39.7 55.2,40.5 55.2,41.3C55.2,56.1 66,69.3 82.4,77.4C75.4,89.5 69.9,102.8 66.5,116.8C65.7,120.2 65,123.5 64.3,126.9C61.8,125.7 59.3,124.5 57,123.1C43.1,115.1 26.5,100.2 26.5,75L26.4,75C24,79.9 22,85.1 20.4,90.4C24.6,106.5 35.6,120.1 52.9,130.1C56.1,131.9 59.4,133.6 62.9,135.1C60.7,151.1 60.8,167 63,182.1C57.1,179.8 51.6,177.2 46.6,174.1C36.6,168.1 25.4,158.8 19.1,145C21.5,154.6 25.2,163.7 30.1,172.1C33.8,175.3 38,178.2 42.5,181C49.2,185 56.7,188.4 64.7,191.2C66.2,198.1 68.1,204.9 70.6,211.3C72.6,212.4 74.6,213.4 76.7,214.3L80,213C77.5,207 75.4,200.6 73.8,193.9C88.1,197.9 103.9,200 120.2,200C136.6,200 152.3,197.9 166.6,193.9C165,200.5 162.9,206.9 160.4,213L163.3,214.2C165.5,213.2 167.7,212.1 169.8,210.9C172.2,204.5 174.1,197.9 175.5,191.1C183.5,188.3 191,184.9 197.7,180.9C201.9,178.4 205.7,175.7 209.1,172.9C213.8,165 217.5,156.3 220,147.2C213.6,159.7 203,168.4 193.6,174ZM120.2,45C129.6,52.6 138.6,62.2 146.3,73.6C138.5,76.2 129.6,77.7 120.2,77.7C110.8,77.7 101.9,76.2 94.1,73.6C101.8,62.2 110.8,52.6 120.2,45ZM74.3,118.6C77.8,104.4 83.1,91.6 89.7,80.5C98.8,83.8 109.2,85.7 120.2,85.7C131.2,85.7 141.6,83.8 150.7,80.5C157.3,91.7 162.6,104.4 166.1,118.6C167,122.4 167.8,126.2 168.4,130C153.8,135.4 137,138.1 120.2,138.1C103.4,138.1 86.6,135.4 72,130C72.7,126.2 73.4,122.4 74.3,118.6ZM168.5,185C153.9,189.5 137.4,191.9 120.2,191.9C103,191.9 86.5,189.5 71.9,185C69.3,170 68.9,154 70.8,138.1C85.6,143.4 102.5,146.2 120.2,146.2C137.8,146.2 154.8,143.4 169.6,138.1C171.5,154.1 171.1,170 168.5,185Z" style="fill:rgb(58,58,58);fill-rule:nonzero;"/>
                        </g>
                    </g>
                </g>
            </g>
        </g>
    </g>
</svg>
