<?xml version="1.0" encoding="UTF-8" standalone="no"?>
<!DOCTYPE svg PUBLIC "-//W3C//DTD SVG 1.1//EN" "http://www.w3.org/Graphics/SVG/1.1/DTD/svg11.dtd">
<svg width="100%" height="100%" viewBox="0 0 240 240" version="1.1" xmlns="http://www.w3.org/2000/svg"
     xml:space="preserve"
     style="fill-rule:evenodd;clip-rule:evenodd;stroke-linecap:round;stroke-linejoin:round;">
    <g transform="matrix(1,0,0,1,-2003,0)">
        <g id="floppy-disk.svg" transform="matrix(0.585355,0,0,0.585355,2003,-2.84217e-14)">
            <path d="M216,91.31L216,208C216,212.389 212.389,216 208,216L48,216C43.611,216 40,212.389 40,208L40,48C40,43.611 43.611,40 48,40L164.69,40C166.808,40.001 168.841,40.843 170.34,42.34L213.66,85.66C215.157,87.159 215.999,89.192 216,91.31Z" style="fill:none;fill-rule:nonzero;stroke:white;stroke-width:16px;"/>
            <path d="M80,216L80,152C80,147.611 83.611,144 88,144L168,144C172.389,144 176,147.611 176,152L176,216" style="fill:none;fill-rule:nonzero;stroke:white;stroke-width:16px;"/>
            <path d="M152,72L96,72" style="fill:none;fill-rule:nonzero;stroke:white;stroke-width:16px;"/>
        </g>
        <g transform="matrix(0.630603,0,0,0.630603,2157.46,152.835)">
            <g transform="matrix(1,0,0,1,-120,-120)">
                <g clip-path="url(#_clip2)">
                    <rect x="16" y="16" width="208" height="208" style="fill:rgb(189,189,189);fill-rule:nonzero;stroke:rgb(58,58,58);stroke-width:8px;stroke-linejoin:miter;stroke-miterlimit:10;"/>
                    <rect x="0" y="0" width="240" height="240" style="fill:none;"/>
                    <path d="M99.368,89.593L88.577,102.439L130.953,149.711L141.737,136.867L99.368,89.593Z" style="fill:rgb(58,58,58);"/>
                    <g>
                        <rect x="52.088" y="51.544" width="111.326" height="52.48" style="fill:rgb(191,178,58);"/>
                        <path d="M159.414,55.544L159.414,100.025L56.089,100.025L56.089,55.544L159.414,55.544M167.414,47.544L48.089,47.544L48.089,108.025L167.414,108.025L167.414,47.544Z" style="fill:rgb(58,58,58);fill-rule:nonzero;"/>
                        <rect x="76.054" y="135.858" width="111.325" height="52.48" style="fill:rgb(191,178,58);"/>
                        <path d="M183.379,139.858L183.379,184.339L80.054,184.339L80.054,139.858L183.379,139.858M191.379,131.858L72.054,131.858L72.054,192.339L191.379,192.339L191.379,131.858Z" style="fill:rgb(58,58,58);fill-rule:nonzero;"/>
                    </g>
                </g>
            </g>
        </g>
    </g>
</svg>
