<?xml version="1.0" encoding="UTF-8" standalone="no"?>
<!DOCTYPE svg PUBLIC "-//W3C//DTD SVG 1.1//EN" "http://www.w3.org/Graphics/SVG/1.1/DTD/svg11.dtd">
<svg width="100%" height="100%" viewBox="0 0 256 256" version="1.1" xmlns="http://www.w3.org/2000/svg"
     xml:space="preserve"
     style="fill-rule:evenodd;clip-rule:evenodd;stroke-linecap:round;stroke-linejoin:round;">
    <g id="folder-open.svg">
        <rect x="0" y="0" width="256" height="256" style="fill:none;"/>
        <path d="M32,208L32,64C32,59.611 35.611,56 40,56L93.33,56C95.061,56 96.745,56.562 98.13,57.6L125.87,78.4C127.255,79.438 128.939,80 130.67,80L200,80C204.389,80 208,83.611 208,88L208,112" style="fill:none;fill-rule:nonzero;stroke:white;stroke-width:16px;"/>
        <path d="M32,208L62.18,117.47C63.266,114.212 66.335,112 69.77,112L232,112C232,112 232,112 232.001,112C236.389,112 240.001,115.611 240.001,120C240.001,120.86 239.862,121.714 239.59,122.53L211.09,208L32,208Z" style="fill:none;fill-rule:nonzero;stroke:white;stroke-width:16px;"/>
    </g>
</svg>
