<?xml version="1.0" encoding="UTF-8" standalone="no"?>
<!DOCTYPE svg PUBLIC "-//W3C//DTD SVG 1.1//EN" "http://www.w3.org/Graphics/SVG/1.1/DTD/svg11.dtd">
<svg width="100%" height="100%" viewBox="0 0 256 256" version="1.1" xmlns="http://www.w3.org/2000/svg"
     xml:space="preserve"
     style="fill-rule:evenodd;clip-rule:evenodd;stroke-linecap:round;stroke-linejoin:round;">
    <g id="floppy-disk.svg">
        <rect x="0" y="0" width="256" height="256" style="fill:none;"/>
        <path d="M216,91.31L216,208C216,212.389 212.389,216 208,216L48,216C43.611,216 40,212.389 40,208L40,48C40,43.611 43.611,40 48,40L164.69,40C166.808,40.001 168.841,40.843 170.34,42.34L213.66,85.66C215.157,87.159 215.999,89.192 216,91.31Z" style="fill:none;fill-rule:nonzero;stroke:white;stroke-width:16px;"/>
        <path d="M80,216L80,152C80,147.611 83.611,144 88,144L168,144C172.389,144 176,147.611 176,152L176,216" style="fill:none;fill-rule:nonzero;stroke:white;stroke-width:16px;"/>
        <path d="M152,72L96,72" style="fill:none;fill-rule:nonzero;stroke:white;stroke-width:16px;"/>
    </g>
</svg>
